<svg xmlns="http://www.w3.org/2000/svg" width="32" height="32" viewBox="0 0 32 32"><g transform="matrix(.88639 0 0 .88639 970.077 -885.619)"><g transform="matrix(1.12818 0 0 1.12818 139.553 -131.991)"><path fill="#ff5855" d="m -1081.9039,1009.1146 c -3.5175,0 -6.3685,2.4377 -6.3685,6.872 0,4.4344 5.9439,8.7045 11.039,13.2859 5.0952,-4.5814 11.0658,-8.7967 11.0658,-13.2859 0,-4.4887 -2.8515,-6.872 -6.3687,-6.872 -1.8546,0 -3.5332,1.3842 -4.6971,2.7489 -1.1634,-1.3565 -2.8225,-2.7489 -4.6705,-2.7489 z"/><path fill="#ff7a6c" d="m -1072.7424,1009.127 c -0.296,0 -0.5943,0.061 -0.88,0.1256 2.9634,0.4732 4.3727,2.7426 4.3727,6.7258 0,4.1967 -4.3702,8.1421 -9.2127,12.3829 0.3405,0.2988 0.6705,0.5787 1.0058,0.88 5.0947,-4.5814 11.0629,-8.7737 11.0629,-13.2629 0,-4.4887 -2.8312,-6.8515 -6.3487,-6.8515 z"/><path fill="#d94c4a" d="m -1081.8208,1009.2154 c 0.296,0 0.5943,0.061 0.88,0.1256 -2.9635,0.4732 -4.1743,2.7426 -4.1743,6.7258 0,4.1967 3.6254,8.7878 8.4679,13.0286 -0.3406,0.2988 -0.1237,-0.067 -0.4595,0.2343 -5.0947,-4.5814 -11.0628,-8.7737 -11.0628,-13.2629 0,-4.4887 2.8312,-6.8515 6.3487,-6.8515 z"/><path fill="none" stroke="#560f65" stroke-linecap="round" stroke-linejoin="round" d="m -1081.9039,1009.1146 c -3.5175,0 -6.3685,2.4377 -6.3685,6.872 0,4.4344 5.9439,8.7045 11.039,13.2859 5.0952,-4.5814 11.0658,-8.7967 11.0658,-13.2859 0,-4.4887 -2.8515,-6.872 -6.3687,-6.872 -1.8546,0 -3.5332,1.3842 -4.6971,2.7489 -1.1634,-1.3565 -2.8225,-2.7489 -4.6705,-2.7489 z"/></g><path fill="none" stroke="#f2f0e7" stroke-linecap="round" stroke-linejoin="round" stroke-width="1.128" d="m -1066.2873,1014.7451 c -0.015,-2.8153 -1.4488,-4.8003 -3.5768,-5.7388"/></g></svg>